<svg xmlns="http://www.w3.org/2000/svg" viewBox="0 0 1360 1372" font-family="'DM Sans','Segoe UI',sans-serif">
<rect x="0" y="0" width="1360" height="1372" fill="#FBF9F4"/>
<defs>
<marker id="arr" markerWidth="7" markerHeight="7" refX="5.4" refY="3" orient="auto"><path d="M0,0 L6,3 L0,6 Z" fill="#B7B4AD"/></marker>
<filter id="soft" x="-12%" y="-30%" width="124%" height="160%"><feDropShadow dx="0" dy="1.4" stdDeviation="2.2" flood-color="#10204a" flood-opacity="0.10"/></filter>
</defs>
<g class="flow-frames"><rect class="frame" x="500" y="270" width="290" height="264" rx="12" fill="#EAF0FB" stroke="#2456C9" stroke-width="1.3" stroke-dasharray="5 4"/><rect class="frame" x="40" y="808" width="1295" height="548" rx="12" fill="none" stroke="#16A697" stroke-width="1.3" stroke-dasharray="5 4"/><rect class="frame" x="44" y="846" width="422" height="502" rx="12" fill="none" stroke="#C9C6BF" stroke-width="1.3" stroke-dasharray="5 4"/><rect class="frame" x="474" y="846" width="470" height="374" rx="12" fill="none" stroke="#C9C6BF" stroke-width="1.3" stroke-dasharray="5 4"/><rect class="frame" x="908" y="846" width="216" height="172" rx="12" fill="none" stroke="#C9C6BF" stroke-width="1.3" stroke-dasharray="5 4"/><text class="frame-lbl" x="512" y="286" text-anchor="start" font-size="11" font-weight="700" fill="#2456C9">TRIAGE ENGINE</text><text class="frame-lbl" x="800" y="286" text-anchor="start" font-size="11" font-weight="400" fill="#6E6E68">the brain we add on top of your ladder</text><text class="frame-lbl" x="687" y="824" text-anchor="middle" font-size="10.5" font-weight="700" fill="#16A697">YOUR EXISTING VALUE LADDER  +  the MARKETING LAYER we wrap around every lane</text><text class="frame-lbl" x="687" y="838" text-anchor="middle" font-size="10" font-weight="400" fill="#6E6E68">message-match copy · speed-to-lead + multi-touch follow-up · abandon &amp; no-show recovery · A/B + CRO</text><text class="frame-lbl" x="56" y="868" text-anchor="start" font-size="10" font-weight="600" fill="#6E6E68">SCORE 0 · DIY · under ~$1k/mo · self-serve funnel</text><text class="frame-lbl" x="486" y="868" text-anchor="start" font-size="10" font-weight="600" fill="#6E6E68">SCORE 1 · DWY · ~$1-5k/mo · budget-routed</text><text class="frame-lbl" x="918" y="868" text-anchor="start" font-size="9.5" font-weight="600" fill="#6E6E68">SCORE 2 · DFY · ~$5k/mo+ · high-touch close</text></g>
<path class="lnk" d="M520,90 L520,122" fill="none" stroke="#B7B4AD" stroke-width="1.3"  marker-end="url(#arr)"/><path class="lnk" d="M770,90 L770,122" fill="none" stroke="#B7B4AD" stroke-width="1.3"  marker-end="url(#arr)"/><path class="lnk" d="M520,168 L520,184 L605,184 L605,200" fill="none" stroke="#B7B4AD" stroke-width="1.3"  marker-end="url(#arr)"/><path class="lnk" d="M770,168 L770,184 L685,184 L685,200" fill="none" stroke="#B7B4AD" stroke-width="1.3"  marker-end="url(#arr)"/><path class="lnk" d="M645,260 L645,294" fill="none" stroke="#B7B4AD" stroke-width="1.3"  marker-end="url(#arr)"/><path class="lnk" d="M645,340 L645,354" fill="none" stroke="#B7B4AD" stroke-width="1.3"  marker-end="url(#arr)"/><path class="lnk" d="M645,400 L645,414" fill="none" stroke="#B7B4AD" stroke-width="1.3"  marker-end="url(#arr)"/><path class="lnk" d="M645,460 L645,474" fill="none" stroke="#B7B4AD" stroke-width="1.3"  marker-end="url(#arr)"/><path class="lnk" d="M645,522 L645,560" fill="none" stroke="#B7B4AD" stroke-width="1.3"  marker-end="url(#arr)"/><g class="lnk-label"><rect x="678.0" y="530.5" width="56.0" height="13" fill="#FBF9F4"/><text x="706" y="540" text-anchor="middle" font-size="9.5" fill="#8A877F" font-style="italic">trains it</text></g><path class="lnk" d="M645,620 L645,642" fill="none" stroke="#B7B4AD" stroke-width="1.3"  marker-end="url(#arr)"/><path class="lnk" d="M645,690 L645,706" fill="none" stroke="#B7B4AD" stroke-width="1.3"  marker-end="url(#arr)"/>
<g class="node lyr-ladder"><rect x="445" y="44" width="150" height="46" rx="11" fill="#FFFFFF" stroke="#C9C6BF" stroke-width="1.4"  filter="url(#soft)"/><text x="520" y="63.3" text-anchor="middle" font-size="12.5" font-weight="700" fill="#111110">Paid ads</text><text x="520" y="77.9" text-anchor="middle" font-size="10.5" font-weight="400" fill="#6E6E68">Meta · YouTube</text></g><g class="node lyr-ladder"><rect x="674" y="44" width="192" height="46" rx="11" fill="#FFFFFF" stroke="#C9C6BF" stroke-width="1.4"  filter="url(#soft)"/><text x="770" y="63.3" text-anchor="middle" font-size="12.5" font-weight="700" fill="#111110">Organic social</text><text x="770" y="77.9" text-anchor="middle" font-size="10.5" font-weight="400" fill="#6E6E68">IG · FB · TikTok · LinkedIn</text></g><g class="node lyr-ladder"><rect x="426" y="122" width="188" height="46" rx="11" fill="#FFFFFF" stroke="#C9C6BF" stroke-width="1.4"  filter="url(#soft)"/><text x="520" y="141.3" text-anchor="middle" font-size="12.5" font-weight="700" fill="#111110">Typeform</text><text x="520" y="155.9" text-anchor="middle" font-size="10.5" font-weight="400" fill="#6E6E68">budget + qualifying questions</text></g><g class="node lyr-marketing"><rect x="667" y="122" width="206" height="46" rx="11" fill="#FFFFFF" stroke="#16A697" stroke-width="1.4"  filter="url(#soft)"/><text x="770" y="141.3" text-anchor="middle" font-size="12.5" font-weight="700" fill="#16A697">ManyChat</text><text x="770" y="155.9" text-anchor="middle" font-size="10.5" font-weight="400" fill="#5AA59D">qualifying conversation we design</text></g><g class="node lyr-engine"><rect x="480" y="200" width="330" height="60" rx="11" fill="#2456C9" stroke="#2456C9" stroke-width="1.4"  filter="url(#soft)"/><text x="645" y="219.0" text-anchor="middle" font-size="12.5" font-weight="700" fill="#FFFFFF">Trigger we build</text><text x="645" y="233.6" text-anchor="middle" font-size="10.5" font-weight="400" fill="#DCE6FB">fires on Typeform submit / ManyChat complete</text><text x="645" y="248.2" text-anchor="middle" font-size="10.5" font-weight="400" fill="#DCE6FB">runs the full engine automatically</text></g><g class="node lyr-ladder"><rect x="523" y="294" width="244" height="46" rx="11" fill="#FFFFFF" stroke="#C9C6BF" stroke-width="1.4"  filter="url(#soft)"/><text x="645" y="313.3" text-anchor="middle" font-size="12.5" font-weight="700" fill="#111110">Enrich + research</text><text x="645" y="327.9" text-anchor="middle" font-size="10.5" font-weight="400" fill="#6E6E68">Perplexity · Apify (or equivalents)</text></g><g class="node lyr-ladder"><rect x="514" y="354" width="262" height="46" rx="11" fill="#FFFFFF" stroke="#C9C6BF" stroke-width="1.4"  filter="url(#soft)"/><text x="645" y="373.3" text-anchor="middle" font-size="12.5" font-weight="700" fill="#111110">Unified profile</text><text x="645" y="387.9" text-anchor="middle" font-size="10.5" font-weight="400" fill="#6E6E68">stage · revenue · funding · app maturity</text></g><g class="node lyr-ladder"><rect x="523" y="414" width="244" height="46" rx="11" fill="#FFFFFF" stroke="#C9C6BF" stroke-width="1.4"  filter="url(#soft)"/><text x="645" y="433.3" text-anchor="middle" font-size="12.5" font-weight="700" fill="#111110">Claim check</text><text x="645" y="447.9" text-anchor="middle" font-size="10.5" font-weight="400" fill="#6E6E68">flags over or under-stated budget</text></g><g class="node lyr-engine"><rect x="514" y="474" width="262" height="48" rx="11" fill="#2456C9" stroke="#2456C9" stroke-width="1.4"  filter="url(#soft)"/><text x="645" y="494.3" text-anchor="middle" font-size="12.5" font-weight="700" fill="#FFFFFF">AI decision</text><text x="645" y="508.9" text-anchor="middle" font-size="10.5" font-weight="400" fill="#DCE6FB">best-fit LANE + OFFER + MESSAGE</text></g><g class="node lyr-engine"><rect x="492" y="560" width="306" height="60" rx="11" fill="#FFFFFF" stroke="#2456C9" stroke-width="1.4"  filter="url(#soft)"/><text x="645" y="579.0" text-anchor="middle" font-size="12.5" font-weight="700" fill="#111110">Human review + self-learning</text><text x="645" y="593.6" text-anchor="middle" font-size="10.5" font-weight="400" fill="#6E6E68">first 30 days: did they buy what we predicted?</text><text x="645" y="608.2" text-anchor="middle" font-size="10.5" font-weight="400" fill="#6E6E68">retrain scoring · refine offer-fit · dial in bands</text></g><g class="node lyr-ladder"><rect x="514" y="642" width="262" height="48" rx="11" fill="#FFFFFF" stroke="#C9C6BF" stroke-width="1.4"  filter="url(#soft)"/><text x="645" y="662.3" text-anchor="middle" font-size="12.5" font-weight="700" fill="#111110">GoHighLevel, source of truth</text><text x="645" y="676.9" text-anchor="middle" font-size="10.5" font-weight="400" fill="#6E6E68">tags score · lane · offer · status</text></g><g class="node lyr-engine"><polygon points="645,706 729,744 645,782 561,744" fill="#2456C9" stroke="#2456C9" stroke-width="1.4" /><text x="645" y="747.6" text-anchor="middle" font-size="12.5" font-weight="700" fill="#FFFFFF">Route by score</text></g><g class="node lyr-ladder"><rect x="1111" y="876" width="198" height="50" rx="11" fill="#FFFFFF" stroke="#C9C6BF" stroke-width="1.4" stroke-dasharray="5 4" filter="url(#soft)"/><text x="1210" y="897.3" text-anchor="middle" font-size="11" font-weight="700" fill="#6E6E68">Flag in GHL: long-term nurture</text><text x="1210" y="911.9" text-anchor="middle" font-size="10.5" font-weight="400" fill="#9B9890">not ready now · re-score later</text></g>
<g class="lane" data-lane="0"><path class="lnk" d="M645,782 L645,822 L250,822 L250,876" fill="none" stroke="#B7B4AD" stroke-width="1.3"  marker-end="url(#arr)"/><path class="lnk" d="M250,922 L250,946" fill="none" stroke="#B7B4AD" stroke-width="1.3"  marker-end="url(#arr)"/><path class="lnk" d="M250,992 L250,994" fill="none" stroke="#B7B4AD" stroke-width="1.3"  marker-end="url(#arr)"/><path class="lnk" d="M250,1090 L250,1108 L150,1108 L150,1126" fill="none" stroke="#B7B4AD" stroke-width="1.3"  marker-end="url(#arr)"/><g class="lnk-label"><rect x="164.0" y="1092.5" width="64.0" height="13" fill="#FBF9F4"/><text x="196" y="1102" text-anchor="middle" font-size="9.5" fill="#8A877F" font-style="italic">more budget</text></g><path class="lnk" d="M250,1090 L250,1108 L360,1108 L360,1126" fill="none" stroke="#B7B4AD" stroke-width="1.3"  marker-end="url(#arr)"/><g class="lnk-label"><rect x="287.0" y="1092.5" width="62.0" height="13" fill="#FBF9F4"/><text x="318" y="1102" text-anchor="middle" font-size="9.5" fill="#8A877F" font-style="italic">can't afford</text></g><path class="lnk" d="M360,1176 L360,1210" fill="none" stroke="#B7B4AD" stroke-width="1.3"  marker-end="url(#arr)"/><path class="lnk" d="M360,1248 L360,1282" fill="none" stroke="#B7B4AD" stroke-width="1.3"  marker-end="url(#arr)"/><g class="node lyr-marketing"><rect x="154" y="876" width="192" height="46" rx="11" fill="#FFFFFF" stroke="#16A697" stroke-width="1.4"  filter="url(#soft)"/><text x="250" y="895.3" text-anchor="middle" font-size="12.5" font-weight="700" fill="#16A697">Email</text><text x="250" y="909.9" text-anchor="middle" font-size="10.5" font-weight="400" fill="#5AA59D">funnels them into the course</text></g><g class="node lyr-ladder"><rect x="159" y="946" width="182" height="46" rx="11" fill="#FFFFFF" stroke="#C9C6BF" stroke-width="1.4"  filter="url(#soft)"/><text x="250" y="965.3" text-anchor="middle" font-size="12.5" font-weight="700" fill="#111110">Blueprint course</text><text x="250" y="979.9" text-anchor="middle" font-size="10.5" font-weight="400" fill="#6E6E68">$997 (front-end)</text></g><g class="node lyr-ladder"><polygon points="250,994 340,1042 250,1090 160,1042" fill="#FFFFFF" stroke="#C9C6BF" stroke-width="1.4" /><text x="250" y="1031.0" text-anchor="middle" font-size="11.5" font-weight="400" fill="#111110">Affordability /</text><text x="250" y="1045.6" text-anchor="middle" font-size="11.5" font-weight="400" fill="#111110">budget signal</text><text x="250" y="1060.2" text-anchor="middle" font-size="11.5" font-weight="400" fill="#111110">(A-B tested)</text></g><g class="node lyr-ladder"><rect x="52" y="1126" width="196" height="50" rx="11" fill="#FFFFFF" stroke="#C9C6BF" stroke-width="1.4"  filter="url(#soft)"/><text x="150" y="1147.3" text-anchor="middle" font-size="12.5" font-weight="400" fill="#111110">More budget · Cap raising</text><text x="150" y="1161.9" text-anchor="middle" font-size="10.5" font-weight="400" fill="#6E6E68">upsell · one-off / payment plan</text></g><g class="node lyr-ladder"><rect x="283" y="1126" width="154" height="50" rx="11" fill="#FFFFFF" stroke="#C9C6BF" stroke-width="1.4"  filter="url(#soft)"/><text x="360" y="1147.3" text-anchor="middle" font-size="12.5" font-weight="400" fill="#111110">Can't afford · ASO</text><text x="360" y="1161.9" text-anchor="middle" font-size="10.5" font-weight="400" fill="#6E6E68">downsell</text></g><g class="node lyr-ladder"><rect x="293" y="1210" width="134" height="38" rx="11" fill="#FFFFFF" stroke="#C9C6BF" stroke-width="1.4"  filter="url(#soft)"/><text x="360" y="1232.6" text-anchor="middle" font-size="12.5" font-weight="400" fill="#111110">Cart checkout</text></g><g class="node lyr-ladder"><rect x="269" y="1282" width="182" height="50" rx="11" fill="#FFFFFF" stroke="#C9C6BF" stroke-width="1.4"  filter="url(#soft)"/><text x="360" y="1303.3" text-anchor="middle" font-size="12.5" font-weight="700" fill="#111110">Join Founders Club</text><text x="360" y="1317.9" text-anchor="middle" font-size="10.5" font-weight="400" fill="#6E6E68">heavily recommended</text></g></g>
<g class="lane" data-lane="1"><path class="lnk" d="M645,782 L645,822 L690,822 L690,864" fill="none" stroke="#B7B4AD" stroke-width="1.3"  marker-end="url(#arr)"/><path class="lnk" d="M690,940 L690,950 L585,950 L585,960" fill="none" stroke="#B7B4AD" stroke-width="1.3"  marker-end="url(#arr)"/><g class="lnk-label"><rect x="629.0" y="934.5" width="26.0" height="13" fill="#FBF9F4"/><text x="642" y="944" text-anchor="middle" font-size="9.5" fill="#8A877F" font-style="italic">&lt;2k</text></g><path class="lnk" d="M690,940 L690,950 L815,950 L815,960" fill="none" stroke="#B7B4AD" stroke-width="1.3"  marker-end="url(#arr)"/><g class="lnk-label"><rect x="741.0" y="934.5" width="26.0" height="13" fill="#FBF9F4"/><text x="754" y="944" text-anchor="middle" font-size="9.5" fill="#8A877F" font-style="italic">&gt;2k</text></g><path class="lnk" d="M585,1010 L585,1028" fill="none" stroke="#B7B4AD" stroke-width="1.3"  marker-end="url(#arr)"/><path class="lnk" d="M815,1010 L815,1046" fill="none" stroke="#B7B4AD" stroke-width="1.3"  marker-end="url(#arr)"/><path class="lnk" d="M585,1112 L585,1156" fill="none" stroke="#B7B4AD" stroke-width="1.3"  marker-end="url(#arr)"/><path class="lnk" d="M815,1096 L815,1156" fill="none" stroke="#B7B4AD" stroke-width="1.3"  marker-end="url(#arr)"/><g class="node lyr-ladder"><polygon points="690,864 750,902 690,940 630,902" fill="#FFFFFF" stroke="#C9C6BF" stroke-width="1.4" /><text x="690" y="905.6" text-anchor="middle" font-size="12.5" font-weight="700" fill="#111110">Budget?</text></g><g class="node lyr-ladder"><rect x="486" y="960" width="198" height="50" rx="11" fill="#FFFFFF" stroke="#C9C6BF" stroke-width="1.4"  filter="url(#soft)"/><text x="585" y="981.3" text-anchor="middle" font-size="12.5" font-weight="400" fill="#111110">&lt; 2k/mo · BP Base</text><text x="585" y="995.9" text-anchor="middle" font-size="10.5" font-weight="400" fill="#6E6E68">web funnel: coaching + course</text></g><g class="node lyr-ladder"><rect x="711" y="960" width="208" height="50" rx="11" fill="#FFFFFF" stroke="#C9C6BF" stroke-width="1.4"  filter="url(#soft)"/><text x="815" y="981.3" text-anchor="middle" font-size="12.5" font-weight="400" fill="#111110">&gt; 2k/mo</text><text x="815" y="995.9" text-anchor="middle" font-size="10.5" font-weight="400" fill="#6E6E68">book call / sales team · BP Pro</text></g><g class="node lyr-ladder"><polygon points="585,1028 637,1070 585,1112 533,1070" fill="#FFFFFF" stroke="#C9C6BF" stroke-width="1.4" /><text x="585" y="1073.6" text-anchor="middle" font-size="12.5" font-weight="700" fill="#111110">A / B test</text></g><g class="node lyr-ladder"><rect x="709" y="1046" width="212" height="50" rx="11" fill="#FFFFFF" stroke="#C9C6BF" stroke-width="1.4"  filter="url(#soft)"/><text x="815" y="1067.3" text-anchor="middle" font-size="12.5" font-weight="400" fill="#111110">On-call upsells</text><text x="815" y="1081.9" text-anchor="middle" font-size="10.5" font-weight="400" fill="#6E6E68">cap-raise · ad content · UX audit</text></g><g class="node lyr-ladder"><rect x="484" y="1156" width="202" height="50" rx="11" fill="#FFFFFF" stroke="#C9C6BF" stroke-width="1.4"  filter="url(#soft)"/><text x="585" y="1177.3" text-anchor="middle" font-size="12.5" font-weight="400" fill="#111110">Dedicated coach / BP Plus</text><text x="585" y="1191.9" text-anchor="middle" font-size="10.5" font-weight="400" fill="#6E6E68">media buying + creative → FC</text></g><g class="node lyr-ladder"><rect x="737" y="1156" width="156" height="46" rx="11" fill="#FFFFFF" stroke="#C9C6BF" stroke-width="1.4"  filter="url(#soft)"/><text x="815" y="1175.3" text-anchor="middle" font-size="12.5" font-weight="400" fill="#111110">BP Pro</text><text x="815" y="1189.9" text-anchor="middle" font-size="10.5" font-weight="400" fill="#6E6E68">upsell on call</text></g></g>
<g class="lane" data-lane="2"><path class="lnk" d="M645,782 L645,822 L1015,822 L1015,876" fill="none" stroke="#B7B4AD" stroke-width="1.3"  marker-end="url(#arr)"/><path class="lnk" d="M1015,922 L1015,956" fill="none" stroke="#B7B4AD" stroke-width="1.3"  marker-end="url(#arr)"/><g class="node lyr-ladder"><rect x="919" y="876" width="192" height="46" rx="11" fill="#FFFFFF" stroke="#C9C6BF" stroke-width="1.4"  filter="url(#soft)"/><text x="1015" y="895.3" text-anchor="middle" font-size="12.5" font-weight="700" fill="#111110">Book call with Dan</text><text x="1015" y="909.9" text-anchor="middle" font-size="10.5" font-weight="400" fill="#6E6E68">SDR double-qualify</text></g><g class="node lyr-ladder"><rect x="932" y="956" width="166" height="46" rx="11" fill="#FFFFFF" stroke="#C9C6BF" stroke-width="1.4"  filter="url(#soft)"/><text x="1015" y="975.3" text-anchor="middle" font-size="12.5" font-weight="400" fill="#111110">Closing call</text><text x="1015" y="989.9" text-anchor="middle" font-size="10.5" font-weight="400" fill="#6E6E68">sell DFY services</text></g></g>
<g class="lane" data-lane="all"><path class="lnk" d="M729,744 L1210,744 L1210,876" fill="none" stroke="#B7B4AD" stroke-width="1.3" stroke-dasharray="5 4" marker-end="url(#arr)"/><g class="lnk-label"><rect x="971.0" y="734" width="58.0" height="13" fill="#FBF9F4"/><text x="1000" y="743.5" text-anchor="middle" font-size="9.5" fill="#8A877F" font-style="italic">not ready</text></g><path class="lnk" d="M427,1229 L450,1229 L450,1307 L459,1307" fill="none" stroke="#B7B4AD" stroke-width="1.3" stroke-dasharray="5 4" marker-end="url(#arr)"/><g class="node lyr-marketing"><rect x="459" y="1282" width="362" height="50" rx="11" fill="#FFFFFF" stroke="#16A697" stroke-width="1.4"  filter="url(#soft)"/><text x="640" y="1303.3" text-anchor="middle" font-size="12.5" font-weight="700" fill="#16A697">Speed-to-lead + dialer</text><text x="640" y="1317.9" text-anchor="middle" font-size="10.5" font-weight="400" fill="#5AA59D">cart abandons · no-shows from any booking · re-engage</text></g></g>
</svg>
